<svg xmlns="http://www.w3.org/2000/svg" version="1.1" xmlns:xlink="http://www.w3.org/1999/xlink" xmlns:svgjs="http://svgjs.dev/svgjs" viewBox="0 0 600 600">
    <path d="M11.677154541015625,67.9731674194336C15.260694821675619,45.57603867848714,26.907201131184898,26.314513285954796,40.34547805786133,16.0118350982666C53.78375498453776,5.709156910578409,68.41654523213704,6.455726782480876,92.30681610107422,6.157098293304443C116.1970869700114,5.858469804128011,151.88318252563477,10.636523803075155,183.68710327148438,14.220064163208008C215.49102401733398,17.803604523340862,253.1181894938151,28.25559711456299,283.1303405761719,27.658340454101562C313.1424916585286,27.061083793640137,334.34511311848956,6.903669357299805,363.760009765625,10.636524200439453C393.17490641276044,14.369379043579102,432.8924865722656,38.110334396362305,459.6197204589844,50.05546951293945C486.3469543457031,62.0006046295166,517.5535888671875,64.09100405375163,524.1234130859375,82.30733489990234C530.6932373046875,100.52366574605306,501.5770009358724,131.13307317097983,499.0386657714844,159.35345458984375C496.5003306070964,187.57383600870767,501.57701110839844,219.5270741780599,508.8934020996094,251.62962341308594C516.2097930908203,283.732172648112,540.3986765543619,316.58128611246747,542.93701171875,351.96875C545.4753468831381,387.35621388753253,534.4260915120443,436.9285380045573,524.1234130859375,463.95440673828125C513.8207346598307,490.9802754720052,504.41395060221356,496.2062581380208,481.1209411621094,514.1239624023438C457.8279317220052,532.0416666666666,416.7665303548177,561.0086364746094,384.3653564453125,571.4606323242188C351.9641825358073,581.9126281738281,317.0246760050456,579.9715372721354,286.7138977050781,576.8359375C256.40311940511066,573.7003377278646,229.67587025960287,554.1401774088541,202.5006866455078,552.6470336914062C175.32550303141275,551.1538899739584,150.5393498738607,571.9085591634115,123.66279602050781,567.8770751953125C96.78624216715495,563.8455912272135,60.2042654355367,547.5703481038412,41.241363525390625,528.4581298828125C22.27846161524455,509.3459116617839,14.215495904286701,478.58717854817706,9.885384559631348,453.2037658691406C5.555273214975993,427.8203531901042,11.378526528676352,401.8396911621094,15.260695457458496,376.15765380859375C19.142864386240642,350.4756164550781,33.17839813232422,323.15112559000653,33.17839813232422,299.1115417480469C33.17839813232422,275.0719579060872,17.649722417195637,256.70630645751953,15.260695457458496,231.92015075683594C12.871668497721354,207.13399505615234,19.441493193308514,177.7191047668457,18.844236373901367,150.3946075439453C18.24697955449422,123.07011032104492,8.093614260355631,90.37029616038005,11.677154541015625,67.9731674194336C15.260694821675619,45.57603867848714,26.907201131184898,26.314513285954796,40.34547805786133,16.0118350982666" style="fill:#ffffff;"></path>
</svg>
